inDegrees=yes
name=ik_S48_A09_T01
DataType=double
version=3
OpenSimVersion=4.3-2021-08-27-4bc7ad9
endheader
time	pelvis_tilt	pelvis_list	pelvis_rotation	pelvis_tx	pelvis_ty	pelvis_tz	hip_flexion_r	hip_adduction_r	hip_rotation_r	knee_angle_r	knee_angle_r_beta	ankle_angle_r	subtalar_angle_r	mtp_angle_r	hip_flexion_l	hip_adduction_l	hip_rotation_l	knee_angle_l	knee_angle_l_beta	ankle_angle_l	subtalar_angle_l	mtp_angle_l	lumbar_extension	lumbar_bending	lumbar_rotation	arm_flex_r	arm_add_r	arm_rot_r	elbow_flex_r	pro_sup_r	wrist_flex_r	wrist_dev_r	arm_flex_l	arm_add_l	arm_rot_l	elbow_flex_l	pro_sup_l	wrist_flex_l	wrist_dev_l
18.1199999999997	-6.91345922568886	-4.715306055846659	35.04317981237543	0	0.9399999999999999	0	40.52683992353025	-10.96113249707246	-10.32680207880482	54.33638573100639	0.9483488346397275	0	0	0	40.52683992353025	-10.96113249707246	-10.32680207880482	54.33638573100639	0.9483488346397275	0	0	0	-6.328057087092219	-3.532421648271015	3.425420390787892	68.60058404246665	0.9168498831091918	9.580473412072413	35.68809905271763	122.8880665938909	0	0	56.64579658940006	-20.65341451670422	9.82689454945859	47.89458222858879	82.39219092365882	0	0
18.1399999999997	-6.937189948659278	-4.723348076532398	35.11972922249596	0	0.9399999999999999	0	40.52807810673084	-10.96020997895917	-10.32660068289552	54.3365088301147	0.9483509831244736	0	0	0	40.52807810673084	-10.96020997895917	-10.32660068289552	54.3365088301147	0.9483509831244736	0	0	0	-6.358488824545736	-3.510750956804582	3.339438856692639	68.65299082527541	0.9246389101229008	9.622083035721618	35.74690838520726	123.0427946180605	0	0	56.76468970330738	-20.90337198085548	9.42879713703188	47.9526687317766	81.36715815922909	0	0
18.1599999999997	-6.921686505341372	-4.753816301061239	35.36380508393618	0	0.9399999999999999	0	40.52988649046454	-10.95885857910638	-10.32630591881777	54.33668798543708	0.9483541099747217	0	0	0	40.52988649046454	-10.95885857910638	-10.32630591881777	54.33668798543708	0.9483541099747217	0	0	0	-6.376304548110197	-3.510731187868987	3.147802223097676	68.71323801108389	0.5458033496298562	9.360943173177986	35.89362113631308	123.0607878722433	0	0	57.13402341927111	-21.4932102807309	7.584986771307777	47.76348472563329	81.9444397340324	0	0
18.1799999999997	-6.929550953816798	-4.768708506595915	35.52185052772332	0	0.9399999999999999	0	40.53111864688572	-10.95793995402894	-10.32610536260463	54.33681024534062	0.9483562438125815	0	0	0	40.53111864688572	-10.95793995402894	-10.32610536260463	54.33681024534062	0.9483562438125815	0	0	0	-6.400335823040991	-3.4955960526052	3.012994548335446	68.78264134952713	0.4019644752341274	9.264372696638295	35.99178889945139	123.1889677758321	0	0	57.44420961658298	-22.07969051676583	6.518438269828755	47.27395128339771	81.85669576467514	0	0
18.1999999999997	-6.929185599440649	-4.774776896713027	35.6449366820217	0	0.9399999999999999	0	40.53239132089256	-10.95699170615973	-10.32589827227874	54.33693652944595	0.9483584478860126	0	0	0	40.53239132089256	-10.95699170615973	-10.32589827227874	54.33693652944595	0.9483584478860126	0	0	0	-6.410349495837743	-3.483895469402794	2.913311453286496	68.81032819416993	0.3014148663966928	9.142879221313263	36.14054336418643	123.4448765676072	0	0	57.63976941117742	-22.52577673480258	5.752863077835785	46.84950731657249	81.64413918207246	0	0
18.2199999999997	-6.921916293483651	-4.776167617785579	35.73936042637509	0	0.9399999999999999	0	40.53384428075995	-10.95590949419868	-10.32566186933719	54.33708066224983	0.9483609634780004	0	0	0	40.53384428075995	-10.95590949419868	-10.32566186933719	54.33708066224983	0.9483609634780004	0	0	0	-6.410813950945653	-3.476032219614606	2.836257114633701	68.77742458420938	0.2272226379314724	8.990278575327419	36.35943005307238	123.8803833538433	0	0	57.75225501261863	-22.92998560815446	5.273002260461737	46.6015819245107	81.45605978995096	0	0
18.2399999999997	-6.930979081409252	-4.789266793851639	35.85879525850032	0	0.9399999999999999	0	40.5350681570027	-10.95500009760751	-10.32546303018932	54.33720227458497	0.9483630860136596	0	0	0	40.5350681570027	-10.95500009760751	-10.32546303018932	54.33720227458497	0.9483630860136596	0	0	0	-6.43257232175903	-3.465267376471763	2.742137197794083	68.75866026688537	0.1527446649698406	8.812563375374515	36.58850363568516	124.3980532051185	0	0	57.91653333593222	-23.48547141193358	4.830583738016242	46.17286856897979	81.02954730568082	0	0
18.2599999999997	-6.921870639515846	-4.820804086418951	36.01593312465279	0	0.9399999999999999	0	40.53623653212362	-10.95413226577648	-10.32527323455161	54.33731835162726	0.9483651119402337	0	0	0	40.53623653212362	-10.95413226577648	-10.32527323455161	54.33731835162726	0.9483651119402337	0	0	0	-6.450785377020818	-3.479130118215464	2.641179846250412	68.71725930706505	0.06089443596121552	8.519768609373916	36.78192412276503	124.7830122971245	0	0	58.08473382182571	-24.18320409072181	4.272446492788444	45.67818195842346	80.88461463750079	0	0
18.2799999999997	-6.91996650468782	-4.832691894407483	36.13103761064751	0	0.9399999999999999	0	40.53821501418616	-10.95267105126726	-10.3249530038061	54.33751585055888	0.9483685589468596	0	0	0	40.53821501418616	-10.95267105126726	-10.3249530038061	54.33751585055888	0.9483685589468596	0	0	0	-6.463443174560674	-3.473208045836581	2.546856376302067	68.66569903716037	-0.01098053652402297	8.235484583431626	36.89254738599502	125.0368990721615	0	0	58.21995897270158	-24.40580493635307	4.06264287768255	44.57797552857691	80.82768816599933	0	0
18.2999999999997	-6.931157933486178	-4.851356341828444	36.25340339541999	0	0.9399999999999999	0	40.53954766146179	-10.95168173525048	-10.32473653645297	54.33764812355891	0.9483708675462215	0	0	0	40.53954766146179	-10.95168173525048	-10.32473653645297	54.33764812355891	0.9483708675462215	0	0	0	-6.491272371312617	-3.462774912479655	2.438749521661756	68.69002645280143	-0.07580201200635241	8.034221307763451	36.98277757006604	125.202533704825	0	0	58.36367744358584	-24.93932811184774	3.292664807432385	44.24458961973619	81.12699634598145	0	0
18.3199999999997	-6.943743606406124	-4.871181717874453	36.41232005986939	0	0.9399999999999999	0	40.54187680046564	-10.94994944642487	-10.32435767670336	54.33787869882644	0.9483748918438137	0	0	0	40.54187680046564	-10.94994944642487	-10.32435767670336	54.33787869882644	0.9483748918438137	0	0	0	-6.521406168940302	-3.451289527998812	2.331191102613693	68.64561618441405	-0.1600773467149839	7.824376013402074	37.19173829900782	125.4622639842796	0	0	58.59890160761899	-25.40224250453514	2.600062333674743	43.30885683246458	82.14002282183345	0	0
18.3399999999997	-6.940075584800756	-4.90855083929325	36.61719018100187	0	0.9399999999999999	0	40.54323055763336	-10.94894493770245	-10.32413777566124	54.33801290539251	0.9483772341902693	0	0	0	40.54323055763336	-10.94894493770245	-10.32413777566124	54.33801290539251	0.9483772341902693	0	0	0	-6.551985623731132	-3.458568435923393	2.182026466786985	68.68014023797329	-0.1916425041432033	7.758286868422354	37.35968195452419	125.6224369481108	0	0	59.13898302164624	-26.40130838220466	1.685833940427651	42.73535438607877	82.90330642954234	0	0
18.3599999999997	-6.944348668631165	-4.933627802652683	36.86764222616046	0	0.9399999999999999	0	40.54568488237755	-10.9471353883508	-10.32374069915172	54.33825746361296	0.9483815025364291	0	0	0	40.54568488237755	-10.9471353883508	-10.32374069915172	54.33825746361296	0.9483815025364291	0	0	0	-6.57953447179995	-3.448351169852643	2.037063489267884	68.59734286025295	-0.3248127361112156	7.558516592646143	37.46218216937768	125.7364158295659	0	0	59.31258286081607	-26.59376721002764	1.468519290646925	40.91396488524808	85.33543427885533	0	0
18.3799999999997	-6.947082426129768	-4.95909709383938	37.12511222637539	0	0.9399999999999999	0	40.54781433153166	-10.94556064880682	-10.32339543370182	54.33846884218836	0.9483851917885379	0	0	0	40.54781433153166	-10.94556064880682	-10.32339543370182	54.33846884218836	0.9483851917885379	0	0	0	-6.612315599861388	-3.430936732164816	1.837858776614134	68.45774964475773	-0.488849610405494	7.295786855246863	37.91426814213499	126.226117253403	0	0	60.03726759532299	-27.60891821815846	1.298409012262111	38.32546780119858	86.39862960333122	0	0
18.3999999999997	-6.946744012789557	-5.001284483104712	37.231758181858	0	0.9399999999999999	0	40.54924494251965	-10.94451093839265	-10.32316463000122	54.33861179007538	0.9483876866998251	0	0	0	40.54924494251965	-10.94451093839265	-10.32316463000122	54.33861179007538	0.9483876866998251	0	0	0	-6.642894333211224	-3.451932349598044	1.765660038104058	68.43692084465341	-0.5640236544701284	7.230851173871889	38.0735709180169	126.2970600897277	0	0	60.51424490357897	-27.84362419725413	1.271962095715118	37.44232200624494	86.94283842324826	0	0
18.4199999999997	-6.949822248631793	-5.014985367728259	37.41930415556369	0	0.9399999999999999	0	40.55152571347354	-10.94283867978409	-10.32279678170197	54.33883963924311	0.9483916634180001	0	0	0	40.55152571347354	-10.94283867978409	-10.32279678170197	54.33883963924311	0.9483916634180001	0	0	0	-6.665059753265029	-3.433004109771315	1.612099840263587	68.39246323067394	-0.6563589211779663	7.199619051173611	38.19056777563974	126.415021326202	0	0	61.04043665175342	-28.12133516719298	1.231964043254272	35.68646664206653	88.55995926575415	0	0
18.4399999999997	-6.94536668509724	-5.063796028455845	37.50446603388922	0	0.9399999999999999	0	40.55366245520573	-10.94127327927521	-10.32245228836969	54.3390530899675	0.9483953888359313	0	0	0	40.55366245520573	-10.94127327927521	-10.32245228836969	54.3390530899675	0.9483953888359313	0	0	0	-6.697767004262797	-3.458969650634832	1.528250934255317	68.37952668625567	-0.6857639027704004	7.100958072079991	38.31145448053191	126.4899460586207	0	0	61.58608258971724	-28.42694955994363	1.396699133206101	34.76656279763898	89.231132615527	0	0
18.4599999999997	-6.943643879546769	-5.104190236541223	37.66880990626318	0	0.9399999999999999	0	40.55573037694403	-10.93975797307687	-10.322118770708	54.33925940024855	0.9483989896296164	0	0	0	40.55573037694403	-10.93975797307687	-10.322118770708	54.33925940024855	0.9483989896296164	0	0	0	-6.731684600429733	-3.463813616873523	1.375067678847688	68.38016274463244	-0.738377340732594	7.059400719964139	38.42959710448702	126.5456955698875	0	0	62.10044976441392	-28.90172766640231	1.552062042916383	32.73887223750015	90.36199501836155	0	0
